<mxfile host="app.diagrams.net" modified="2022-06-03T18:45:18.580Z" agent="5.0 (Macintosh; Intel Mac OS X 10_15_7) AppleWebKit/537.36 (KHTML, like Gecko) Chrome/101.0.0.0 Safari/537.36" etag="KoSLs1ee7eeLhQghbIwg" version="19.0.0" type="github">
  <diagram id="fOvkwaYnufU0YdgCZuCn" name="Page-1">
    <mxGraphModel dx="3264" dy="1053" grid="1" gridSize="10" guides="1" tooltips="1" connect="1" arrows="1" fold="1" page="1" pageScale="1" pageWidth="1169" pageHeight="827" background="#FFFFFF" math="0" shadow="0">
      <root>
        <mxCell id="0" />
        <mxCell id="1" parent="0" />
        <mxCell id="Sc1rqUHGPMf288mBVmfR-71" value="" style="rounded=0;whiteSpace=wrap;html=1;fillColor=#fff2cc;strokeColor=#d6b656;" vertex="1" parent="1">
          <mxGeometry x="170" y="460" width="1170" height="720" as="geometry" />
        </mxCell>
        <mxCell id="Sc1rqUHGPMf288mBVmfR-1" value="Servlet" style="rounded=0;whiteSpace=wrap;html=1;" vertex="1" parent="1">
          <mxGeometry x="140" y="110" width="120" height="60" as="geometry" />
        </mxCell>
        <mxCell id="Sc1rqUHGPMf288mBVmfR-2" value="" style="aspect=fixed;perimeter=ellipsePerimeter;html=1;align=center;shadow=0;dashed=0;spacingTop=3;image;image=img/lib/active_directory/internet_cloud.svg;" vertex="1" parent="1">
          <mxGeometry x="-13.34" y="103.75" width="120.84" height="72.5" as="geometry" />
        </mxCell>
        <mxCell id="Sc1rqUHGPMf288mBVmfR-5" value="Request Thread" style="rounded=0;whiteSpace=wrap;html=1;" vertex="1" parent="1">
          <mxGeometry x="280" y="110" width="120" height="60" as="geometry" />
        </mxCell>
        <mxCell id="Sc1rqUHGPMf288mBVmfR-6" value="Open HTTP &lt;br&gt;Request" style="rounded=0;whiteSpace=wrap;html=1;" vertex="1" parent="1">
          <mxGeometry x="450" y="30" width="120" height="60" as="geometry" />
        </mxCell>
        <mxCell id="Sc1rqUHGPMf288mBVmfR-7" value="Decide which CONTROLLER method to call" style="rounded=0;whiteSpace=wrap;html=1;" vertex="1" parent="1">
          <mxGeometry x="760" y="100" width="120" height="60" as="geometry" />
        </mxCell>
        <mxCell id="Sc1rqUHGPMf288mBVmfR-10" value="Resource Or Controller" style="rounded=0;whiteSpace=wrap;html=1;" vertex="1" parent="1">
          <mxGeometry x="230" y="840" width="120" height="60" as="geometry" />
        </mxCell>
        <mxCell id="Sc1rqUHGPMf288mBVmfR-11" value="Registration &lt;br&gt;Handler" style="rounded=0;whiteSpace=wrap;html=1;" vertex="1" parent="1">
          <mxGeometry x="520" y="670" width="120" height="60" as="geometry" />
        </mxCell>
        <mxCell id="Sc1rqUHGPMf288mBVmfR-12" value="Login&lt;br&gt;Handler" style="rounded=0;whiteSpace=wrap;html=1;" vertex="1" parent="1">
          <mxGeometry x="520" y="890" width="120" height="60" as="geometry" />
        </mxCell>
        <mxCell id="Sc1rqUHGPMf288mBVmfR-13" value="Store&lt;br&gt;Handler" style="rounded=0;whiteSpace=wrap;html=1;" vertex="1" parent="1">
          <mxGeometry x="520" y="970" width="120" height="60" as="geometry" />
        </mxCell>
        <mxCell id="Sc1rqUHGPMf288mBVmfR-15" value="Order&lt;br&gt;Handler" style="rounded=0;whiteSpace=wrap;html=1;" vertex="1" parent="1">
          <mxGeometry x="520" y="1060" width="120" height="60" as="geometry" />
        </mxCell>
        <mxCell id="Sc1rqUHGPMf288mBVmfR-22" value="Data Access Layer" style="rounded=0;whiteSpace=wrap;html=1;" vertex="1" parent="1">
          <mxGeometry x="870" y="840" width="120" height="60" as="geometry" />
        </mxCell>
        <mxCell id="Sc1rqUHGPMf288mBVmfR-24" value="DB" style="shape=datastore;whiteSpace=wrap;html=1;" vertex="1" parent="1">
          <mxGeometry x="1150" y="800" width="100" height="140" as="geometry" />
        </mxCell>
        <mxCell id="Sc1rqUHGPMf288mBVmfR-25" value="" style="endArrow=classic;html=1;rounded=0;exitX=0;exitY=0.75;exitDx=0;exitDy=0;entryX=1;entryY=0.75;entryDx=0;entryDy=0;strokeWidth=2;" edge="1" parent="1" source="Sc1rqUHGPMf288mBVmfR-10" target="Sc1rqUHGPMf288mBVmfR-26">
          <mxGeometry width="50" height="50" relative="1" as="geometry">
            <mxPoint x="248.32999999999993" y="682.5" as="sourcePoint" />
            <mxPoint x="360" y="490" as="targetPoint" />
          </mxGeometry>
        </mxCell>
        <mxCell id="Sc1rqUHGPMf288mBVmfR-59" value="10" style="edgeLabel;html=1;align=center;verticalAlign=middle;resizable=0;points=[];" vertex="1" connectable="0" parent="Sc1rqUHGPMf288mBVmfR-25">
          <mxGeometry x="-0.1984" y="1" relative="1" as="geometry">
            <mxPoint as="offset" />
          </mxGeometry>
        </mxCell>
        <mxCell id="Sc1rqUHGPMf288mBVmfR-26" value="" style="aspect=fixed;perimeter=ellipsePerimeter;html=1;align=center;shadow=0;dashed=0;spacingTop=3;image;image=img/lib/active_directory/internet_cloud.svg;" vertex="1" parent="1">
          <mxGeometry x="20" y="837.5" width="108.33" height="65" as="geometry" />
        </mxCell>
        <mxCell id="Sc1rqUHGPMf288mBVmfR-28" value="" style="endArrow=classic;html=1;rounded=0;exitX=1;exitY=0.5;exitDx=0;exitDy=0;entryX=0;entryY=0.5;entryDx=0;entryDy=0;edgeStyle=orthogonalEdgeStyle;startArrow=none;startFill=0;strokeWidth=2;" edge="1" parent="1" source="Sc1rqUHGPMf288mBVmfR-11" target="Sc1rqUHGPMf288mBVmfR-22">
          <mxGeometry width="50" height="50" relative="1" as="geometry">
            <mxPoint x="280" y="570" as="sourcePoint" />
            <mxPoint x="330" y="520" as="targetPoint" />
            <Array as="points">
              <mxPoint x="830" y="700" />
              <mxPoint x="830" y="870" />
            </Array>
          </mxGeometry>
        </mxCell>
        <mxCell id="Sc1rqUHGPMf288mBVmfR-34" value="If Request VALID" style="edgeLabel;html=1;align=center;verticalAlign=middle;resizable=0;points=[];" vertex="1" connectable="0" parent="Sc1rqUHGPMf288mBVmfR-28">
          <mxGeometry x="0.0516" y="3" relative="1" as="geometry">
            <mxPoint x="-3" y="30" as="offset" />
          </mxGeometry>
        </mxCell>
        <mxCell id="Sc1rqUHGPMf288mBVmfR-55" value="5" style="edgeLabel;html=1;align=center;verticalAlign=middle;resizable=0;points=[];" vertex="1" connectable="0" parent="Sc1rqUHGPMf288mBVmfR-28">
          <mxGeometry x="-0.3" y="1" relative="1" as="geometry">
            <mxPoint as="offset" />
          </mxGeometry>
        </mxCell>
        <mxCell id="Sc1rqUHGPMf288mBVmfR-29" value="" style="endArrow=classic;html=1;rounded=0;exitX=1;exitY=0.25;exitDx=0;exitDy=0;entryX=0;entryY=0.25;entryDx=0;entryDy=0;edgeStyle=orthogonalEdgeStyle;startArrow=none;startFill=0;strokeWidth=2;" edge="1" parent="1" source="Sc1rqUHGPMf288mBVmfR-10" target="Sc1rqUHGPMf288mBVmfR-11">
          <mxGeometry width="50" height="50" relative="1" as="geometry">
            <mxPoint x="290" y="580" as="sourcePoint" />
            <mxPoint x="340" y="530" as="targetPoint" />
            <Array as="points">
              <mxPoint x="410" y="855" />
              <mxPoint x="410" y="685" />
            </Array>
          </mxGeometry>
        </mxCell>
        <mxCell id="Sc1rqUHGPMf288mBVmfR-44" value="HTTP Request" style="edgeLabel;html=1;align=center;verticalAlign=middle;resizable=0;points=[];" vertex="1" connectable="0" parent="Sc1rqUHGPMf288mBVmfR-29">
          <mxGeometry x="-0.175" y="-2" relative="1" as="geometry">
            <mxPoint x="-12" y="-16" as="offset" />
          </mxGeometry>
        </mxCell>
        <mxCell id="Sc1rqUHGPMf288mBVmfR-52" value="2" style="edgeLabel;html=1;align=center;verticalAlign=middle;resizable=0;points=[];" vertex="1" connectable="0" parent="Sc1rqUHGPMf288mBVmfR-29">
          <mxGeometry x="0.1353" y="1" relative="1" as="geometry">
            <mxPoint as="offset" />
          </mxGeometry>
        </mxCell>
        <mxCell id="Sc1rqUHGPMf288mBVmfR-30" value="" style="endArrow=classic;html=1;rounded=0;exitX=0.25;exitY=0;exitDx=0;exitDy=0;entryX=0;entryY=0.5;entryDx=0;entryDy=0;edgeStyle=orthogonalEdgeStyle;startArrow=none;startFill=0;strokeWidth=2;" edge="1" parent="1" source="Sc1rqUHGPMf288mBVmfR-11" target="Sc1rqUHGPMf288mBVmfR-47">
          <mxGeometry width="50" height="50" relative="1" as="geometry">
            <mxPoint x="290" y="580" as="sourcePoint" />
            <mxPoint x="657.2560975609758" y="555.9552845528456" as="targetPoint" />
          </mxGeometry>
        </mxCell>
        <mxCell id="Sc1rqUHGPMf288mBVmfR-53" value="3" style="edgeLabel;html=1;align=center;verticalAlign=middle;resizable=0;points=[];" vertex="1" connectable="0" parent="Sc1rqUHGPMf288mBVmfR-30">
          <mxGeometry x="-0.3143" y="-3" relative="1" as="geometry">
            <mxPoint x="-3" y="-4" as="offset" />
          </mxGeometry>
        </mxCell>
        <mxCell id="Sc1rqUHGPMf288mBVmfR-31" value="" style="endArrow=classic;html=1;rounded=0;entryX=0.75;entryY=0;entryDx=0;entryDy=0;exitX=0.5;exitY=1;exitDx=0;exitDy=0;edgeStyle=orthogonalEdgeStyle;startArrow=none;startFill=0;strokeWidth=2;" edge="1" parent="1" source="Sc1rqUHGPMf288mBVmfR-47" target="Sc1rqUHGPMf288mBVmfR-11">
          <mxGeometry width="50" height="50" relative="1" as="geometry">
            <mxPoint x="685" y="580" as="sourcePoint" />
            <mxPoint x="340" y="530" as="targetPoint" />
          </mxGeometry>
        </mxCell>
        <mxCell id="Sc1rqUHGPMf288mBVmfR-33" value="Valid OR Invalid" style="edgeLabel;html=1;align=center;verticalAlign=middle;resizable=0;points=[];" vertex="1" connectable="0" parent="Sc1rqUHGPMf288mBVmfR-31">
          <mxGeometry x="-0.0909" relative="1" as="geometry">
            <mxPoint x="-6" as="offset" />
          </mxGeometry>
        </mxCell>
        <mxCell id="Sc1rqUHGPMf288mBVmfR-54" value="4" style="edgeLabel;html=1;align=center;verticalAlign=middle;resizable=0;points=[];" vertex="1" connectable="0" parent="Sc1rqUHGPMf288mBVmfR-31">
          <mxGeometry x="-0.768" relative="1" as="geometry">
            <mxPoint as="offset" />
          </mxGeometry>
        </mxCell>
        <mxCell id="Sc1rqUHGPMf288mBVmfR-35" value="" style="endArrow=classic;html=1;rounded=0;exitX=1;exitY=0.25;exitDx=0;exitDy=0;entryX=0;entryY=0.3;entryDx=0;entryDy=0;edgeStyle=orthogonalEdgeStyle;startArrow=none;startFill=0;strokeWidth=2;" edge="1" parent="1" source="Sc1rqUHGPMf288mBVmfR-22" target="Sc1rqUHGPMf288mBVmfR-24">
          <mxGeometry width="50" height="50" relative="1" as="geometry">
            <mxPoint x="200" y="710" as="sourcePoint" />
            <mxPoint x="250" y="710" as="targetPoint" />
          </mxGeometry>
        </mxCell>
        <mxCell id="Sc1rqUHGPMf288mBVmfR-40" value="Prepared Stmt" style="edgeLabel;html=1;align=center;verticalAlign=middle;resizable=0;points=[];" vertex="1" connectable="0" parent="Sc1rqUHGPMf288mBVmfR-35">
          <mxGeometry x="-0.1621" y="3" relative="1" as="geometry">
            <mxPoint y="-22" as="offset" />
          </mxGeometry>
        </mxCell>
        <mxCell id="Sc1rqUHGPMf288mBVmfR-56" value="6" style="edgeLabel;html=1;align=center;verticalAlign=middle;resizable=0;points=[];" vertex="1" connectable="0" parent="Sc1rqUHGPMf288mBVmfR-35">
          <mxGeometry x="-0.526" relative="1" as="geometry">
            <mxPoint as="offset" />
          </mxGeometry>
        </mxCell>
        <mxCell id="Sc1rqUHGPMf288mBVmfR-37" value="7" style="endArrow=classic;html=1;rounded=0;exitX=0;exitY=0.7;exitDx=0;exitDy=0;entryX=1;entryY=0.75;entryDx=0;entryDy=0;edgeStyle=orthogonalEdgeStyle;startArrow=none;startFill=0;strokeWidth=2;" edge="1" parent="1" source="Sc1rqUHGPMf288mBVmfR-24" target="Sc1rqUHGPMf288mBVmfR-22">
          <mxGeometry x="0.3064" width="50" height="50" relative="1" as="geometry">
            <mxPoint x="870" y="1000" as="sourcePoint" />
            <mxPoint x="920" y="950" as="targetPoint" />
            <Array as="points">
              <mxPoint x="1080" y="898" />
              <mxPoint x="1080" y="885" />
            </Array>
            <mxPoint as="offset" />
          </mxGeometry>
        </mxCell>
        <mxCell id="Sc1rqUHGPMf288mBVmfR-42" value="ResultSet" style="edgeLabel;html=1;align=center;verticalAlign=middle;resizable=0;points=[];" vertex="1" connectable="0" parent="Sc1rqUHGPMf288mBVmfR-37">
          <mxGeometry x="0.0521" y="-1" relative="1" as="geometry">
            <mxPoint x="-2" y="26" as="offset" />
          </mxGeometry>
        </mxCell>
        <mxCell id="Sc1rqUHGPMf288mBVmfR-38" value="" style="endArrow=classic;html=1;rounded=0;exitX=0;exitY=0.75;exitDx=0;exitDy=0;entryX=1;entryY=0.75;entryDx=0;entryDy=0;edgeStyle=orthogonalEdgeStyle;startArrow=none;startFill=0;strokeWidth=2;" edge="1" parent="1" source="Sc1rqUHGPMf288mBVmfR-22" target="Sc1rqUHGPMf288mBVmfR-11">
          <mxGeometry width="50" height="50" relative="1" as="geometry">
            <mxPoint x="1110" y="738" as="sourcePoint" />
            <mxPoint x="990" y="725" as="targetPoint" />
          </mxGeometry>
        </mxCell>
        <mxCell id="Sc1rqUHGPMf288mBVmfR-43" value="POJO or Bean" style="edgeLabel;html=1;align=center;verticalAlign=middle;resizable=0;points=[];" vertex="1" connectable="0" parent="Sc1rqUHGPMf288mBVmfR-38">
          <mxGeometry x="0.0636" relative="1" as="geometry">
            <mxPoint x="-8" y="25" as="offset" />
          </mxGeometry>
        </mxCell>
        <mxCell id="Sc1rqUHGPMf288mBVmfR-57" value="8" style="edgeLabel;html=1;align=center;verticalAlign=middle;resizable=0;points=[];" vertex="1" connectable="0" parent="Sc1rqUHGPMf288mBVmfR-38">
          <mxGeometry x="0.1" y="1" relative="1" as="geometry">
            <mxPoint as="offset" />
          </mxGeometry>
        </mxCell>
        <mxCell id="Sc1rqUHGPMf288mBVmfR-39" value="HTTP Response" style="endArrow=classic;html=1;rounded=0;exitX=0;exitY=0.75;exitDx=0;exitDy=0;entryX=1;entryY=0.75;entryDx=0;entryDy=0;edgeStyle=orthogonalEdgeStyle;startArrow=none;startFill=0;strokeWidth=2;" edge="1" parent="1" source="Sc1rqUHGPMf288mBVmfR-11" target="Sc1rqUHGPMf288mBVmfR-10">
          <mxGeometry x="-0.0294" y="10" width="50" height="50" relative="1" as="geometry">
            <mxPoint x="870" y="725" as="sourcePoint" />
            <mxPoint x="650" y="725" as="targetPoint" />
            <Array as="points">
              <mxPoint x="460" y="715" />
              <mxPoint x="460" y="885" />
            </Array>
            <mxPoint as="offset" />
          </mxGeometry>
        </mxCell>
        <mxCell id="Sc1rqUHGPMf288mBVmfR-58" value="9" style="edgeLabel;html=1;align=center;verticalAlign=middle;resizable=0;points=[];" vertex="1" connectable="0" parent="Sc1rqUHGPMf288mBVmfR-39">
          <mxGeometry x="-0.2471" relative="1" as="geometry">
            <mxPoint as="offset" />
          </mxGeometry>
        </mxCell>
        <mxCell id="Sc1rqUHGPMf288mBVmfR-46" value="" style="endArrow=classic;html=1;rounded=0;exitX=1;exitY=0.25;exitDx=0;exitDy=0;entryX=0;entryY=0.25;entryDx=0;entryDy=0;strokeWidth=2;" edge="1" parent="1" source="Sc1rqUHGPMf288mBVmfR-26" target="Sc1rqUHGPMf288mBVmfR-10">
          <mxGeometry width="50" height="50" relative="1" as="geometry">
            <mxPoint x="190" y="610" as="sourcePoint" />
            <mxPoint x="240" y="560" as="targetPoint" />
          </mxGeometry>
        </mxCell>
        <mxCell id="Sc1rqUHGPMf288mBVmfR-51" value="1" style="edgeLabel;html=1;align=center;verticalAlign=middle;resizable=0;points=[];" vertex="1" connectable="0" parent="Sc1rqUHGPMf288mBVmfR-46">
          <mxGeometry x="0.0496" y="4" relative="1" as="geometry">
            <mxPoint x="11" as="offset" />
          </mxGeometry>
        </mxCell>
        <mxCell id="Sc1rqUHGPMf288mBVmfR-47" value="&lt;span style=&quot;&quot;&gt;Registration&lt;/span&gt;&lt;br style=&quot;&quot;&gt;&lt;span style=&quot;&quot;&gt;Request Validator&lt;/span&gt;" style="rounded=0;whiteSpace=wrap;html=1;" vertex="1" parent="1">
          <mxGeometry x="680" y="490" width="120" height="60" as="geometry" />
        </mxCell>
        <mxCell id="Sc1rqUHGPMf288mBVmfR-63" value="Request Handler" style="ellipse;whiteSpace=wrap;html=1;" vertex="1" parent="1">
          <mxGeometry x="920" y="90" width="120" height="80" as="geometry" />
        </mxCell>
        <mxCell id="Sc1rqUHGPMf288mBVmfR-64" value="" style="endArrow=classic;html=1;rounded=0;strokeWidth=2;exitX=1;exitY=0.5;exitDx=0;exitDy=0;" edge="1" parent="1" source="Sc1rqUHGPMf288mBVmfR-2" target="Sc1rqUHGPMf288mBVmfR-1">
          <mxGeometry width="50" height="50" relative="1" as="geometry">
            <mxPoint x="160" y="390" as="sourcePoint" />
            <mxPoint x="210" y="340" as="targetPoint" />
          </mxGeometry>
        </mxCell>
        <mxCell id="Sc1rqUHGPMf288mBVmfR-65" value="" style="endArrow=classic;html=1;rounded=0;strokeWidth=2;exitX=1;exitY=0.5;exitDx=0;exitDy=0;entryX=0;entryY=0.5;entryDx=0;entryDy=0;" edge="1" parent="1" source="Sc1rqUHGPMf288mBVmfR-1" target="Sc1rqUHGPMf288mBVmfR-5">
          <mxGeometry width="50" height="50" relative="1" as="geometry">
            <mxPoint x="120" y="155" as="sourcePoint" />
            <mxPoint x="160" y="153" as="targetPoint" />
          </mxGeometry>
        </mxCell>
        <mxCell id="Sc1rqUHGPMf288mBVmfR-66" value="" style="endArrow=classic;html=1;rounded=0;strokeWidth=2;exitX=1;exitY=0.25;exitDx=0;exitDy=0;entryX=0;entryY=0.5;entryDx=0;entryDy=0;" edge="1" parent="1" source="Sc1rqUHGPMf288mBVmfR-5" target="Sc1rqUHGPMf288mBVmfR-6">
          <mxGeometry width="50" height="50" relative="1" as="geometry">
            <mxPoint x="410" y="135" as="sourcePoint" />
            <mxPoint x="170" y="173" as="targetPoint" />
          </mxGeometry>
        </mxCell>
        <mxCell id="Sc1rqUHGPMf288mBVmfR-67" value="" style="endArrow=classic;html=1;rounded=0;strokeWidth=2;exitX=1;exitY=0.5;exitDx=0;exitDy=0;entryX=0;entryY=0.5;entryDx=0;entryDy=0;" edge="1" parent="1" source="Sc1rqUHGPMf288mBVmfR-6" target="Sc1rqUHGPMf288mBVmfR-74">
          <mxGeometry width="50" height="50" relative="1" as="geometry">
            <mxPoint x="150" y="185" as="sourcePoint" />
            <mxPoint x="190" y="183" as="targetPoint" />
          </mxGeometry>
        </mxCell>
        <mxCell id="Sc1rqUHGPMf288mBVmfR-69" value="" style="endArrow=classic;html=1;rounded=0;strokeWidth=2;exitX=1;exitY=0.5;exitDx=0;exitDy=0;" edge="1" parent="1" source="Sc1rqUHGPMf288mBVmfR-7" target="Sc1rqUHGPMf288mBVmfR-63">
          <mxGeometry width="50" height="50" relative="1" as="geometry">
            <mxPoint x="280" y="175" as="sourcePoint" />
            <mxPoint x="320" y="173" as="targetPoint" />
          </mxGeometry>
        </mxCell>
        <mxCell id="Sc1rqUHGPMf288mBVmfR-72" value="" style="endArrow=none;html=1;rounded=0;strokeWidth=2;exitX=0;exitY=0;exitDx=0;exitDy=0;entryX=0.5;entryY=1;entryDx=0;entryDy=0;" edge="1" parent="1" source="Sc1rqUHGPMf288mBVmfR-71" target="Sc1rqUHGPMf288mBVmfR-63">
          <mxGeometry width="50" height="50" relative="1" as="geometry">
            <mxPoint x="930" y="430" as="sourcePoint" />
            <mxPoint x="1080" y="350" as="targetPoint" />
          </mxGeometry>
        </mxCell>
        <mxCell id="Sc1rqUHGPMf288mBVmfR-73" value="" style="endArrow=none;html=1;rounded=0;strokeWidth=2;entryX=0.5;entryY=1;entryDx=0;entryDy=0;exitX=1;exitY=0;exitDx=0;exitDy=0;" edge="1" parent="1" source="Sc1rqUHGPMf288mBVmfR-71" target="Sc1rqUHGPMf288mBVmfR-63">
          <mxGeometry width="50" height="50" relative="1" as="geometry">
            <mxPoint x="670" y="730" as="sourcePoint" />
            <mxPoint x="720" y="680" as="targetPoint" />
          </mxGeometry>
        </mxCell>
        <mxCell id="Sc1rqUHGPMf288mBVmfR-74" value="Convert JSON to Request POJO" style="rounded=0;whiteSpace=wrap;html=1;" vertex="1" parent="1">
          <mxGeometry x="590" y="30" width="120" height="60" as="geometry" />
        </mxCell>
        <mxCell id="Sc1rqUHGPMf288mBVmfR-75" value="" style="endArrow=classic;html=1;rounded=0;strokeWidth=2;exitX=1;exitY=0.5;exitDx=0;exitDy=0;entryX=0;entryY=0.25;entryDx=0;entryDy=0;" edge="1" parent="1" source="Sc1rqUHGPMf288mBVmfR-74" target="Sc1rqUHGPMf288mBVmfR-7">
          <mxGeometry width="50" height="50" relative="1" as="geometry">
            <mxPoint x="570" y="70" as="sourcePoint" />
            <mxPoint x="720" y="125" as="targetPoint" />
          </mxGeometry>
        </mxCell>
        <mxCell id="Sc1rqUHGPMf288mBVmfR-77" value="Prepare HTTP &lt;br&gt;Response" style="rounded=0;whiteSpace=wrap;html=1;" vertex="1" parent="1">
          <mxGeometry x="450" y="170" width="120" height="60" as="geometry" />
        </mxCell>
        <mxCell id="Sc1rqUHGPMf288mBVmfR-78" value="Convert Response POJO to JSON" style="rounded=0;whiteSpace=wrap;html=1;" vertex="1" parent="1">
          <mxGeometry x="590" y="170" width="120" height="60" as="geometry" />
        </mxCell>
        <mxCell id="Sc1rqUHGPMf288mBVmfR-79" value="" style="endArrow=classic;html=1;rounded=0;strokeWidth=2;exitX=0;exitY=0.5;exitDx=0;exitDy=0;entryX=1;entryY=0.75;entryDx=0;entryDy=0;" edge="1" parent="1" source="Sc1rqUHGPMf288mBVmfR-77" target="Sc1rqUHGPMf288mBVmfR-5">
          <mxGeometry width="50" height="50" relative="1" as="geometry">
            <mxPoint x="420" y="150" as="sourcePoint" />
            <mxPoint x="450" y="60" as="targetPoint" />
          </mxGeometry>
        </mxCell>
        <mxCell id="Sc1rqUHGPMf288mBVmfR-80" value="" style="endArrow=classic;html=1;rounded=0;strokeWidth=2;exitX=0;exitY=0.5;exitDx=0;exitDy=0;entryX=1;entryY=0.5;entryDx=0;entryDy=0;" edge="1" parent="1" source="Sc1rqUHGPMf288mBVmfR-78" target="Sc1rqUHGPMf288mBVmfR-77">
          <mxGeometry width="50" height="50" relative="1" as="geometry">
            <mxPoint x="460" y="210" as="sourcePoint" />
            <mxPoint x="430" y="165" as="targetPoint" />
          </mxGeometry>
        </mxCell>
        <mxCell id="Sc1rqUHGPMf288mBVmfR-81" value="" style="endArrow=classic;html=1;rounded=0;strokeWidth=2;exitX=0;exitY=0.75;exitDx=0;exitDy=0;entryX=1;entryY=0.5;entryDx=0;entryDy=0;" edge="1" parent="1" source="Sc1rqUHGPMf288mBVmfR-7" target="Sc1rqUHGPMf288mBVmfR-78">
          <mxGeometry width="50" height="50" relative="1" as="geometry">
            <mxPoint x="460" y="220" as="sourcePoint" />
            <mxPoint x="430" y="175" as="targetPoint" />
          </mxGeometry>
        </mxCell>
      </root>
    </mxGraphModel>
  </diagram>
</mxfile>
